<svg width="91" height="26" viewBox="0 0 58 17" fill="none" xmlns="http://www.w3.org/2000/svg">
<path d="M7.88063 16.22C11.0006 16.22 12.5206 15.2 13.6206 14.08L11.9006 12.44C11.0006 13.28 10.1006 13.94 8.02063 13.94C4.34063 13.94 2.86063 12.06 2.86063 8.6C2.86063 5.08 4.50063 3.28 8.00063 3.28C9.62063 3.28 10.7806 3.78 11.7606 4.7L13.5206 2.96C12.1606 1.62 10.4206 0.94 8.02063 0.94C3.20063 0.94 0.420625 3.32 0.420625 8.58C0.420625 13.54 2.62063 16.22 7.88063 16.22ZM15.63 16H17.97V10.24C17.97 8.3 18.73 7.04 21.41 7.02V4.68C19.51 4.72 18.15 5.32 17.69 6.08L17.45 4.8L15.63 4.94V16ZM26.178 16.2C28.478 16.2 29.698 15.72 30.338 14.86C30.638 15.8 31.178 16.02 32.318 16.02C32.818 16.02 33.118 16.02 33.278 15.98V13.96C32.298 13.96 32.218 13.8 32.218 12.78V9.02C32.218 5.84 31.498 4.54 27.598 4.54C25.498 4.54 23.658 5.32 22.898 5.84L24.118 7.66C24.818 7.24 25.978 6.72 27.358 6.72C29.578 6.72 29.938 7.34 29.978 8.68H29.418C23.918 8.68 22.118 9.6 22.118 12.78C22.118 14.68 22.878 16.2 26.178 16.2ZM26.578 14.2C24.798 14.2 24.318 13.64 24.318 12.6C24.318 11.1 25.158 10.6 29.558 10.6H29.978V11.18C29.978 13.28 28.978 14.2 26.578 14.2ZM37.7436 16.1H40.1036L42.6636 8.32L45.2236 16.1H47.5836L51.4236 4.8H49.0436L46.4036 12.72L43.8436 4.8H41.5436L38.9836 12.74L36.3436 4.8H33.9036L37.7436 16.1ZM55.8323 16.02C56.3723 16.02 56.8723 16 57.0723 15.98V13.94H56.6523C55.6123 13.94 55.4523 13.62 55.4523 12.64V0.48H53.1523V12.92C53.1523 15.24 53.9323 16.02 55.8323 16.02Z" fill="black"/>
</svg>
