<svg width="120" height="48" viewBox="0 0 85 19" fill="none" xmlns="http://www.w3.org/2000/svg">
<path d="M0.471563 15H5.37156C11.0916 15 13.4716 13.28 13.4716 7.58C13.4716 1.78 11.2516 0.179999 5.53156 0.179999H0.471563V15ZM2.89156 12.76V2.48H5.57156C10.0516 2.48 11.0316 3.74 11.0316 7.58C11.0316 11.38 9.85156 12.76 5.49156 12.76H2.89156ZM15.7227 15H18.0227V3.8H15.7227V15ZM15.7027 2.58H18.0427V0.0199997H15.7027V2.58ZM24.9156 15.2C28.3956 15.2 29.7956 14.24 29.7956 11.68C29.7956 9.06 27.9156 8.72 25.1356 8.26C23.4356 7.98 22.8356 7.76 22.8356 6.86C22.8356 6.12 23.2956 5.7 25.1356 5.7C26.3756 5.7 27.5556 6.02 28.3756 6.46L29.4756 4.54C28.3756 3.9 26.8156 3.54 25.0756 3.54C21.7556 3.54 20.5356 4.74 20.5356 6.86C20.5356 9.56 22.3956 9.98 25.0756 10.4C26.9156 10.7 27.5356 10.88 27.5356 11.8C27.5356 12.92 26.8556 13.18 25.0556 13.18C23.8356 13.18 22.3556 12.84 21.1156 12.04L19.9156 13.84C21.4356 14.86 23.2156 15.2 24.9156 15.2ZM31.8527 18.3H34.1927V13.96C34.7327 14.76 35.7927 15.18 38.0127 15.18C41.8727 15.18 42.9127 12.72 42.9127 9.38C42.9127 6.02 41.9127 3.54 38.1327 3.54C35.6727 3.54 34.4727 4.04 33.8727 4.88L33.6727 3.8L31.8527 3.94V18.3ZM37.5927 13.08C35.0327 13.08 34.1927 12.1 34.1927 9.46C34.1927 6.8 35.1127 5.78 37.5927 5.78C39.9927 5.78 40.5527 7.26 40.5527 9.46C40.5527 11.66 39.9527 13.08 37.5927 13.08ZM48.4748 15.2C50.7748 15.2 51.9948 14.72 52.6348 13.86C52.9348 14.8 53.4748 15.02 54.6148 15.02C55.1148 15.02 55.4148 15.02 55.5748 14.98V12.96C54.5948 12.96 54.5148 12.8 54.5148 11.78V8.02C54.5148 4.84 53.7948 3.54 49.8948 3.54C47.7948 3.54 45.9548 4.32 45.1948 4.84L46.4148 6.66C47.1148 6.24 48.2748 5.72 49.6548 5.72C51.8748 5.72 52.2348 6.34 52.2748 7.68H51.7148C46.2148 7.68 44.4148 8.6 44.4148 11.78C44.4148 13.68 45.1748 15.2 48.4748 15.2ZM48.8748 13.2C47.0948 13.2 46.6148 12.64 46.6148 11.6C46.6148 10.1 47.4548 9.6 51.8548 9.6H52.2748V10.18C52.2748 12.28 51.2748 13.2 48.8748 13.2ZM62.0786 10.92C65.4986 10.92 66.9986 9.8 66.9986 7.32C66.9986 5.94 66.4986 5.16 65.6186 4.68H67.3586V2.76L62.3586 3.56H62.0786C58.6186 3.56 57.1786 4.86 57.1786 7.32C57.1786 8.64 57.6186 9.58 58.5386 10.18C58.2386 10.62 58.0786 11.2 58.0786 11.74C58.0786 12.36 58.2386 12.9 58.7786 13.24C57.1386 13.58 56.5386 14.56 56.5386 15.82C56.5386 18.06 58.0986 18.58 62.0186 18.58C66.1386 18.58 67.8186 17.58 67.8186 15.1C67.8186 12.76 66.5586 12.1 62.2386 12.1C60.5586 12.1 60.1386 11.98 60.1386 11.36C60.1386 11.16 60.2186 10.96 60.3386 10.8C60.8386 10.88 61.4186 10.92 62.0786 10.92ZM62.0786 9.12C60.1386 9.12 59.4386 8.56 59.4386 7.32C59.4386 6.06 60.1386 5.52 62.0786 5.52C63.8986 5.52 64.6986 6.06 64.6986 7.32C64.6986 8.56 64.0186 9.12 62.0786 9.12ZM62.0986 16.78C59.6986 16.78 58.8786 16.44 58.8786 15.42C58.8786 14.58 59.2386 13.98 62.0986 13.98C64.6386 13.98 65.4586 14.2 65.4586 15.22C65.4586 16.24 64.8186 16.78 62.0986 16.78ZM74.6084 15.22C78.6484 15.22 80.2284 13.18 80.2284 9.38C80.2284 5.58 78.6484 3.54 74.6084 3.54C70.5684 3.54 68.9884 5.58 68.9884 9.38C68.9884 13.18 70.5684 15.22 74.6084 15.22ZM74.6084 13.12C72.1284 13.12 71.3284 11.76 71.3284 9.44C71.3284 7.12 72.1284 5.78 74.6084 5.78C77.0684 5.78 77.8884 7.12 77.8884 9.44C77.8884 11.76 77.0684 13.12 74.6084 13.12ZM81.9275 15H84.7475V12H81.9275V15Z" fill="black"/>
</svg>
