<svg width="180" height="48" viewBox="0 0 142 20" fill="none" xmlns="http://www.w3.org/2000/svg">
<path d="M5.61156 16H8.05156V3.5H13.3916V1.18H0.271563V3.5H5.61156V16ZM14.9034 16H17.2434V9.86C17.2434 8.1 17.6834 6.86 20.2434 6.86C22.5634 6.86 22.7234 8.02 22.7234 9.66V16H25.0434V9.2C25.0434 6.42 24.5034 4.54 21.0234 4.54C18.7234 4.54 17.6634 5.08 17.2234 5.66V0.48H14.9034V16ZM32.7955 16.22C34.9355 16.22 36.2755 15.74 37.5555 14.76L36.3155 13.14C35.4555 13.76 34.5755 14.22 32.7955 14.22C30.2955 14.22 29.5955 13.12 29.4555 11.36H37.5555C37.6355 7.82 37.4755 4.54 32.7555 4.54C28.1955 4.54 27.1955 7.2 27.1955 10.38C27.1955 13.6 28.1155 16.22 32.7955 16.22ZM32.6955 6.6C35.0955 6.6 35.2555 7.74 35.3555 9.34H29.4555C29.6355 7.68 30.3755 6.6 32.6955 6.6ZM43.8063 16.2C47.2863 16.2 48.6862 15.24 48.6862 12.68C48.6862 10.06 46.8063 9.72 44.0263 9.26C42.3263 8.98 41.7263 8.76 41.7263 7.86C41.7263 7.12 42.1863 6.7 44.0263 6.7C45.2663 6.7 46.4463 7.02 47.2663 7.46L48.3663 5.54C47.2663 4.9 45.7063 4.54 43.9663 4.54C40.6463 4.54 39.4263 5.74 39.4263 7.86C39.4263 10.56 41.2863 10.98 43.9663 11.4C45.8063 11.7 46.4263 11.88 46.4263 12.8C46.4263 13.92 45.7463 14.18 43.9463 14.18C42.7263 14.18 41.2463 13.84 40.0063 13.04L38.8063 14.84C40.3263 15.86 42.1063 16.2 43.8063 16.2ZM50.8633 16H53.1633V4.8H50.8633V16ZM50.8433 3.58H53.1833V1.02H50.8433V3.58ZM60.0563 16.2C63.5363 16.2 64.9362 15.24 64.9362 12.68C64.9362 10.06 63.0563 9.72 60.2763 9.26C58.5763 8.98 57.9763 8.76 57.9763 7.86C57.9763 7.12 58.4363 6.7 60.2763 6.7C61.5163 6.7 62.6963 7.02 63.5163 7.46L64.6163 5.54C63.5163 4.9 61.9563 4.54 60.2163 4.54C56.8963 4.54 55.6763 5.74 55.6763 7.86C55.6763 10.56 57.5363 10.98 60.2163 11.4C62.0563 11.7 62.6763 11.88 62.6763 12.8C62.6763 13.92 61.9963 14.18 60.1963 14.18C58.9763 14.18 57.4963 13.84 56.2563 13.04L55.0563 14.84C56.5763 15.86 58.3563 16.2 60.0563 16.2ZM71.7255 16H74.0855V10.94H78.4255C82.5855 10.94 83.9855 8.96 83.9855 5.9C83.9855 2.86 82.5255 1.18 78.5255 1.18H71.7255V16ZM74.0855 8.74V3.38H78.4855C80.6055 3.38 81.5655 4 81.5655 6.02C81.5655 8 80.5655 8.74 78.5255 8.74H74.0855ZM85.88 16H88.22V10.24C88.22 8.3 88.98 7.04 91.66 7.02V4.68C89.76 4.72 88.4 5.32 87.94 6.08L87.7 4.8L85.88 4.94V16ZM98.3038 16.22C102.344 16.22 103.924 14.18 103.924 10.38C103.924 6.58 102.344 4.54 98.3038 4.54C94.2638 4.54 92.6838 6.58 92.6838 10.38C92.6838 14.18 94.2638 16.22 98.3038 16.22ZM98.3038 14.12C95.8238 14.12 95.0238 12.76 95.0238 10.44C95.0238 8.12 95.8238 6.78 98.3038 6.78C100.764 6.78 101.584 8.12 101.584 10.44C101.584 12.76 100.764 14.12 98.3038 14.12ZM104.813 19.36H105.253C107.933 19.36 108.573 18.6 108.573 15.88V4.8H106.273V15.9C106.273 17.14 106.113 17.46 105.013 17.48H104.813V19.36ZM106.253 3.58H108.593V1.02H106.253V3.58ZM116.506 16.22C118.646 16.22 119.986 15.74 121.266 14.76L120.026 13.14C119.166 13.76 118.286 14.22 116.506 14.22C114.006 14.22 113.306 13.12 113.166 11.36H121.266C121.346 7.82 121.186 4.54 116.466 4.54C111.906 4.54 110.906 7.2 110.906 10.38C110.906 13.6 111.826 16.22 116.506 16.22ZM116.406 6.6C118.806 6.6 118.966 7.74 119.066 9.34H113.166C113.346 7.68 114.086 6.6 116.406 6.6ZM128.497 16.2C130.557 16.2 131.657 15.6 132.857 14.48L131.297 13C130.477 13.76 129.757 14.12 128.597 14.12C125.977 14.12 125.297 12.7 125.297 10.44C125.297 8.18 126.017 6.8 128.597 6.8C129.977 6.8 130.677 7.36 131.177 7.88L132.877 6.28C131.957 5.24 130.597 4.54 128.597 4.54C124.077 4.54 122.957 7 122.957 10.38C122.957 13.78 124.097 16.2 128.497 16.2ZM133.986 6.92H135.906V12.78C135.906 15.02 136.566 16.02 139.346 16.02C139.726 16.02 140.766 16.02 141.086 16V13.94H139.786C138.346 13.94 138.226 13.38 138.226 12.44V6.92H141.086V4.8H138.226V1.42L136.406 1.8L135.986 4.8H133.986V6.92Z" fill="black"/>
</svg>
