<svg width="207" height="28" viewBox="0 0 207 28" fill="none" xmlns="http://www.w3.org/2000/svg">
<path d="M18.318 0C22.518 0 26.718 0 30.918 0C31.718 0 32.018 0.200006 32.018 1.10001C31.918 2.20001 32.018 3.3 32.018 4.5C31.918 8.2 29.118 11.1 25.418 11.1C18.918 11.1 12.418 11.1 6.01802 11.1C2.61802 11.1 0.218018 8.80001 0.218018 5.60001C0.218018 2.50001 2.71801 0.100006 5.91801 0.100006C10.018 6.10203e-06 14.218 0 18.318 0Z" fill="#FE7BAF"/>
<path d="M13.918 27.6C9.71803 27.6 5.51802 27.6 1.31802 27.6C0.218022 27.6 -0.0819655 27.3 0.0180345 26.2C0.118034 24.6 -0.0819686 22.9 0.218031 21.3C0.718031 18.5 3.01802 16.5 5.81802 16.5C12.818 16.5 19.718 16.5 26.718 16.5C29.818 16.5 32.018 18.9 32.018 22.1C32.018 25.2 29.718 27.5 26.618 27.5C22.418 27.6 18.218 27.6 13.918 27.6Z" fill="#FAC465"/>
<path d="M90.818 12.3C94.018 8.10001 99.518 8.59999 100.518 12.5C101.618 11 102.818 9.89999 104.618 9.49999C107.818 8.79999 109.918 10.3 110.218 13.5C110.518 16.8 110.318 20.2 110.318 23.6C110.318 24 110.218 24.2 109.818 24.2C109.118 24.2 108.418 24.2 107.818 24.2C107.118 24.2 107.318 23.7 107.318 23.4C107.318 21 107.318 18.7 107.318 16.3C107.318 15.7 107.318 15.2 107.218 14.6C106.918 12.3 105.018 11.4 103.118 12.6C101.718 13.5 100.918 14.7 100.918 16.4C100.918 18.6 100.918 20.9 100.918 23.1C100.918 23.9 100.718 24.1 99.918 24.1C97.818 24.1 97.818 24.1 97.818 22C97.818 19.6 97.818 17.2 97.718 14.8C97.718 13.7 97.318 12.6 96.118 12.2C95.018 11.8 93.918 12.1 93.018 12.9C91.918 13.8 91.318 14.9 91.318 16.4C91.318 18.6 91.318 20.8 91.318 23C91.318 23.8 91.118 24.1 90.218 24.1C88.118 24.1 88.118 24.1 88.118 22C88.118 18.2 88.118 14.3 88.118 10.5C88.118 9.09999 89.018 9.59999 89.718 9.49999C90.418 9.39999 91.118 9.39999 90.918 10.5C90.718 11.1 90.818 11.6 90.818 12.3Z" fill="#1C347A"/>
<path d="M47.318 4.30003C49.318 4.20003 51.218 4.90001 53.118 6.00001C53.718 6.30001 53.918 6.70003 53.418 7.30003C53.018 7.80003 52.918 8.60001 52.418 8.90001C51.918 9.20001 51.418 8.40002 50.818 8.10002C49.218 7.30002 47.618 7.00003 45.818 7.20003C44.418 7.40003 43.418 8.10003 43.218 9.20003C42.918 10.4 43.318 11.3 44.618 11.9C46.118 12.6 47.818 12.8 49.418 13.4C49.918 13.6 50.318 13.7 50.818 13.8C53.718 14.9 54.718 16.5 54.518 19.4C54.318 21.8 52.718 23.6 50.018 24.1C46.418 24.8 43.018 24.2 39.918 22.3C39.218 21.9 39.218 21.6 39.518 20.9C40.418 19.2 40.418 19.2 42.118 20.1C44.318 21.2 46.518 21.9 49.018 21.4C50.118 21.2 51.018 20.7 51.218 19.5C51.418 18.3 50.918 17.5 49.618 16.9C48.318 16.3 47.018 16 45.618 15.6C44.818 15.4 44.118 15.1 43.318 14.9C41.518 14.2 40.218 13.2 40.018 11.2C39.718 9.00003 40.418 7.20003 42.218 5.80003C43.618 4.60003 45.318 4.30003 47.318 4.30003Z" fill="#1C347A"/>
<path d="M64.918 18C63.218 18 61.518 18 59.918 18C59.318 18 59.118 18.2 59.318 18.8C59.718 20.4 60.718 21.6 62.318 22.1C64.018 22.6 65.518 22.2 66.718 21C67.018 20.7 67.018 20.1 67.618 20.2C68.318 20.3 69.018 20.5 69.718 20.8C70.018 20.9 69.918 21.2 69.718 21.4C69.518 21.8 69.218 22.1 68.918 22.5C66.118 25.5 60.618 25.4 57.718 22.3C54.818 19.1 55.318 13.7 58.718 11.1C62.218 8.40001 67.518 9.30001 69.818 13C70.718 14.4 70.918 15.9 70.918 17.5C70.918 18.1 70.718 18.3 70.118 18.2C68.418 18 66.718 18 64.918 18Z" fill="#1C347A"/>
<path d="M134.618 24.5C130.218 24.5 127.118 21.3 127.118 16.9C127.118 12.6 130.318 9.40002 134.618 9.30002C139.018 9.30002 142.218 12.5 142.218 16.9C142.118 21.4 139.018 24.5 134.618 24.5Z" fill="#1C347A"/>
<path d="M82.218 22C80.518 23.8 78.618 24.6 76.318 24.5C74.118 24.4 72.318 22.9 71.918 20.8C71.518 18.7 72.618 16.9 74.718 15.9C76.718 15 78.818 15.1 80.918 15.7C81.818 15.9 81.818 15.7 81.818 14.9C81.718 12.8 80.418 11.5 78.118 11.6C76.718 11.6 75.518 12.1 74.318 12.9C73.918 13.1 73.518 13.4 73.318 12.7C73.218 12.1 72.118 11.6 73.218 10.9C75.618 9.49998 78.218 9 80.918 9.7C83.418 10.4 84.818 12.3 84.918 15.1C84.918 16.3 84.918 17.6 84.918 18.8C85.018 19.8 84.618 20.9 85.618 21.8C86.018 22.2 86.018 23.4 85.618 24.1C85.318 24.6 84.518 24.5 83.818 24.4C83.018 24.2 82.518 23.7 82.318 22.9C82.318 22.6 82.318 22.4 82.218 22Z" fill="#1C347A"/>
<path d="M184.118 21.5C182.518 23.6 180.518 24.5 178.118 24.5C175.818 24.4 174.418 23.3 173.818 21.1C173.418 19.6 173.618 18.1 173.618 16.6C173.618 14.6 173.618 12.6 173.618 10.6C173.618 9.80001 173.818 9.70001 174.518 9.70001C176.718 9.70001 176.718 9.69999 176.718 11.9C176.718 14 176.718 16.1 176.718 18.3C176.718 20.8 177.618 22 179.518 22C181.718 22 183.718 20.1 183.718 18.1C183.718 15.7 183.718 13.3 183.718 10.9C183.718 9.99999 183.918 9.70002 184.818 9.80002C186.818 9.90002 186.818 9.80002 186.818 11.8C186.818 14.6 186.818 17.5 186.818 20.3C186.818 20.8 186.718 21.3 187.218 21.6C188.218 22.3 187.718 23.3 187.618 24.1C187.518 24.7 186.618 24.6 186.118 24.6C185.218 24.5 184.518 24.2 184.218 23.2C184.118 22.6 184.118 22.2 184.118 21.5Z" fill="#1C347A"/>
<path d="M147.218 12.4C148.918 10.3 150.818 9.39999 153.218 9.39999C155.418 9.39999 156.818 10.5 157.318 12.7C157.818 14.8 157.518 16.8 157.618 18.9C157.618 20.4 157.618 21.9 157.618 23.3C157.618 23.9 157.518 24.2 156.818 24.2C154.518 24.2 154.518 24.3 154.518 22C154.518 19.8 154.518 17.5 154.518 15.3C154.518 14.1 154.218 12.9 153.018 12.4C151.818 11.9 150.618 12.3 149.618 13C148.318 13.9 147.518 15.1 147.618 16.8C147.718 18.9 147.618 21 147.618 23.1C147.618 23.9 147.418 24.2 146.518 24.2C144.418 24.2 144.418 24.2 144.418 22.1C144.418 18.3 144.518 14.6 144.418 10.8C144.418 9.60002 144.918 9.5 145.918 9.5C146.818 9.5 147.518 9.50001 147.318 10.7C147.118 11.2 147.218 11.6 147.218 12.4Z" fill="#1C347A"/>
<path d="M119.818 24.5C116.418 24.5 113.618 22.5 112.618 19.4C111.618 16.2 112.718 12.6 115.318 10.7C117.918 8.80001 121.818 8.90001 124.318 10.7C124.418 10.7 124.418 10.8 124.518 10.8C125.118 11.4 126.218 12.1 125.918 12.8C125.618 13.5 124.318 13.4 123.518 13.8C123.218 13.9 123.118 13.7 122.918 13.5C121.818 12.1 120.318 11.6 118.518 12.1C116.818 12.6 115.918 13.9 115.618 15.6C114.918 18.8 117.118 21.8 120.118 21.7C121.118 21.7 122.018 21.4 122.518 20.6C123.218 19.6 123.918 19.9 124.718 20.1C126.418 20.7 126.518 20.7 125.318 22.1C124.018 23.7 122.118 24.5 119.818 24.5Z" fill="#1C347A"/>
<path d="M165.718 24.5C163.618 24.5 161.718 23.9 159.918 22.8C158.718 22 159.918 21.6 160.118 21C160.318 20.3 160.718 20.5 161.318 20.8C163.018 21.9 164.918 22.6 167.018 22.1C167.918 21.9 168.718 21.4 168.718 20.4C168.818 19.4 168.018 19 167.218 18.7C165.718 18.2 164.118 17.8 162.618 17.3C161.318 16.9 160.118 16.1 160.018 14.5C159.818 12.8 160.418 11.4 161.918 10.4C164.218 8.79999 168.618 9.1 170.818 11C171.218 11.3 171.218 11.5 170.918 11.9C170.118 13.3 170.118 13.3 168.618 12.5C167.318 11.8 165.918 11.5 164.418 11.8C163.418 12 162.818 12.6 162.718 13.6C162.718 14.6 163.318 15 164.218 15.2C165.618 15.6 167.118 16 168.518 16.4C170.918 17.2 171.718 18.3 171.618 20.3C171.518 22.3 170.218 23.7 168.018 24.2C167.318 24.5 166.518 24.5 165.718 24.5Z" fill="#1C347A"/>
<path d="M198.718 17.2C198.718 15.8 198.718 14.3 198.718 12.9C198.718 12.3 198.618 11.9 197.918 12C196.818 12.2 196.818 11.6 196.818 10.8C196.818 10 196.918 9.40001 197.918 9.60001C198.718 9.70001 198.818 9.30001 198.818 8.60001C198.818 7.60001 198.818 6.60001 198.818 5.60001C198.818 5.00001 198.918 4.80003 199.618 4.80003C201.918 4.70003 201.918 4.70001 201.918 7.00001C201.918 7.10001 201.918 7.2 201.918 7.4C201.918 9.6 201.918 9.70001 204.118 9.60001C205.218 9.60001 205.018 10.2 205.118 10.9C205.118 11.6 205.218 12.1 204.218 12.1C202.018 12.1 202.018 12.1 202.018 14.3C202.018 16.1 202.018 17.8 202.018 19.6C202.018 21.4 202.818 22 204.618 21.5C205.018 21.4 205.618 20.7 205.718 21.7C205.818 22.4 206.918 23.4 205.318 23.9C203.818 24.4 202.418 24.7 200.918 24.2C199.618 23.8 198.918 22.9 198.918 21.5C198.718 20.1 198.718 18.7 198.718 17.2Z" fill="#1C347A"/>
<path d="M190.318 13.1C190.318 10.4 190.318 7.7 190.318 5C190.318 4.2 190.518 3.89999 191.418 3.89999C193.518 3.89999 193.518 3.9 193.518 6C193.518 10.6 193.518 15.1 193.518 19.7C193.518 21.5 194.118 22 195.818 21.7C196.418 21.6 196.518 21.7 196.618 22.3C196.918 24.1 197.018 24.1 195.118 24.5C194.518 24.6 193.818 24.7 193.218 24.6C191.418 24.5 190.318 23.4 190.318 21.6C190.318 18.6 190.318 15.9 190.318 13.1Z" fill="#1C347A"/>
<path d="M23.018 23.5C22.418 23.4 21.918 23 21.918 22.3C21.918 21.6 22.418 21.2 23.118 21.2C23.718 21.2 24.218 21.6 24.218 22.4C24.218 23 23.718 23.4 23.018 23.5Z" fill="white"/>
<path d="M10.618 22.1C10.618 23 10.318 23.5 9.51804 23.5C8.81804 23.5 8.41803 23.1 8.41803 22.4C8.41803 21.7 8.91804 21.3 9.51804 21.2C10.218 21.2 10.718 21.5 10.618 22.1Z" fill="white"/>
<path d="M17.518 22.3C17.418 22.9 17.118 23.4 16.418 23.4C15.718 23.4 15.318 23 15.318 22.3C15.318 21.6 15.818 21.2 16.418 21.2C17.018 21.2 17.418 21.6 17.518 22.3Z" fill="white"/>
<path d="M63.418 15.8C62.218 15.8 61.018 15.8 59.818 15.8C59.218 15.8 59.118 15.7 59.218 15.1C59.718 13.1 61.318 11.8 63.318 11.7C65.318 11.7 67.118 13 67.618 14.8C67.818 15.6 67.718 15.9 66.818 15.8C65.718 15.8 64.518 15.8 63.418 15.8Z" fill="white"/>
<path d="M134.618 21.8C131.918 21.8 129.918 18.9 130.518 16C130.918 13.7 132.718 12.1 134.718 12C136.718 12 138.418 13.6 138.918 15.9C139.518 19 137.418 21.9 134.618 21.8Z" fill="white"/>
<path d="M78.818 17.1C79.118 17.1 79.718 17.1 80.118 17.3C80.718 17.5 81.618 17.3 81.718 18.1C81.818 19 82.018 20 81.118 20.8C79.918 22 78.618 22.4 77.018 22.2C75.718 22 74.818 21.1 74.718 20C74.618 18.8 75.318 17.9 76.618 17.5C77.318 17.2 78.018 17.1 78.818 17.1Z" fill="white"/>
</svg>
