<svg width="47" height="41" viewBox="0 0 47 41" fill="none" xmlns="http://www.w3.org/2000/svg">
<g clip-path="url(#clip0_4_253)">
<path d="M8.53382 4.5033V10.219H14.2976V13.1635H8.53382V25.7208C8.53382 27.2797 9.136 28.1457 10.5124 28.1457C11.6308 28.0591 12.6631 27.7127 13.6094 27.1931L14.7277 29.2715C13.0932 30.484 11.1146 31.1768 9.136 31.2634C7.8456 31.35 6.64123 30.8304 5.78096 29.9643C4.92069 28.8385 4.49056 27.4529 4.49056 25.461V13.1635H0.533325V10.6521L4.57658 10.219V5.28272L8.53382 4.5033Z" fill="#0682A8"/>
<path d="M20.3695 39.837V0H23.3804V39.837H20.3695Z" fill="#0682A8"/>
<path d="M45.9194 20.8711L32.0691 20.9578C31.9831 22.7764 32.5853 24.595 33.7036 26.0673C34.736 27.3663 36.2845 28.0591 37.919 27.9725C38.5212 27.9725 39.1233 27.8859 39.7255 27.7993C40.3277 27.7127 40.8439 27.5395 41.4461 27.3663C41.9622 27.1931 42.3923 27.0199 42.9085 26.8467C43.3386 26.6735 43.5967 26.5003 43.9408 26.3271L44.7151 25.8075L46.1775 27.8859C45.4033 28.4921 44.543 29.0984 43.6828 29.5314C42.8225 29.9644 41.8762 30.3108 41.0159 30.6572C39.9836 31.0036 38.7792 31.1768 37.6609 31.1768C34.5639 31.1768 32.1552 30.2242 30.5207 28.4055C28.8861 26.5869 28.1119 23.9888 28.0259 20.7845C28.0259 19.3123 28.284 17.7535 28.7141 16.2812C29.1442 14.9822 29.8324 13.7698 30.6927 12.8171C32.4993 10.8253 34.994 9.69946 37.7469 9.69946C43.3386 9.69946 46.1775 12.7305 46.1775 18.8793L45.9194 20.8711ZM32.1552 18.0133H41.7902C41.8762 16.6276 41.4461 15.3286 40.7578 14.1162C39.9836 13.0769 38.6932 12.5573 37.4028 12.6439C36.0264 12.5573 34.6499 13.1636 33.7897 14.1162C32.8434 15.3286 32.2412 16.6276 32.1552 18.0133Z" fill="#0682A8"/>
</g>
<defs>
<clipPath id="clip0_4_253">
<rect width="46.4667" height="41" fill="white" transform="translate(0.533325)"/>
</clipPath>
</defs>
</svg>
